<svg width="519" height="78" viewBox="0 0 519 78" fill="none" xmlns="http://www.w3.org/2000/svg">
<path fill-rule="evenodd" clip-rule="evenodd" d="M39 68C55.0163 68 68 55.0163 68 39C68 22.9837 55.0163 10 39 10C22.9837 10 10 22.9837 10 39C10 55.0163 22.9837 68 39 68ZM41.0332 51.4234H34.7545V39.1945H41.0332C43.3979 39.1945 45.1309 39.857 46.2325 41.1822C47.2459 42.3345 47.7526 43.7533 47.7526 45.4386C47.7526 47.0662 47.2753 48.377 46.3206 49.3709C45.0134 50.7392 43.251 51.4234 41.0332 51.4234ZM41.0332 35.3054H34.7545V26.5766H41.0332C42.3844 26.5766 43.486 26.9439 44.3378 27.6785C45.2925 28.5571 45.7698 29.5438 45.7698 30.6385C45.7698 31.9781 45.3733 33.0656 44.5802 33.901C43.6842 34.8372 42.5019 35.3054 41.0332 35.3054ZM30.3483 54.8594C30.3483 55.1096 30.5539 55.3125 30.8075 55.3125H41.0332C44.5581 55.3125 47.3267 54.3258 49.3388 52.3525C51.2188 50.5232 52.1587 48.1825 52.1587 45.3305C52.1587 42.493 51.0866 40.1163 48.9422 38.2006C48.2373 37.5956 47.5249 37.1419 46.8053 36.8394C49.0377 35.1973 50.1539 33.1376 50.1539 30.6601C50.1539 28.2258 49.1772 26.2309 47.2239 24.6752C45.5789 23.3501 43.5153 22.6875 41.0332 22.6875H32.7859C32.7185 22.6875 32.652 22.7021 32.591 22.7303L30.6126 23.6455C30.4513 23.7201 30.3483 23.8801 30.3483 24.0558V54.8594ZM28.0525 23.5937C27.7989 23.5937 27.5933 23.7966 27.5933 24.0469V54.8594C27.5933 55.1096 27.7989 55.3125 28.0525 55.3125H28.7412C28.9948 55.3125 29.2004 55.1096 29.2004 54.8594V24.0469C29.2004 23.7966 28.9948 23.5937 28.7412 23.5937H28.0525Z" fill="white"/>
<path d="M86.744 23.72H95.72C100.776 23.72 104.136 24.568 105.8 26.264C107.464 27.96 108.296 30.008 108.296 32.408C108.296 34.008 107.944 35.528 107.24 36.968C106.536 38.376 105.416 39.432 103.88 40.136C106.152 40.712 107.816 41.72 108.872 43.16C109.96 44.6 110.504 46.296 110.504 48.248C110.504 50.296 110.184 52.088 109.544 53.624C108.904 55.16 107.576 56.44 105.56 57.464C103.544 58.488 100.632 59 96.824 59H86.744V23.72ZM96.584 38.696C98.856 38.696 100.472 38.152 101.432 37.064C102.392 35.944 102.872 34.536 102.872 32.84C102.872 29.8 100.696 28.28 96.344 28.28H92.024V38.696H96.584ZM97.544 54.488C100.456 54.488 102.408 53.912 103.4 52.76C104.424 51.576 104.936 50.088 104.936 48.296C104.936 46.6 104.36 45.288 103.208 44.36C102.056 43.432 100.312 42.968 97.976 42.968H92.024V54.488H97.544ZM135.607 59L128.503 45.656C127.031 45.72 125.719 45.752 124.567 45.752H123.223V59H117.991V23.72H126.007C130.071 23.72 133.415 24.568 136.039 26.264C138.663 27.928 139.975 30.648 139.975 34.424C139.975 36.792 139.415 38.84 138.295 40.568C137.207 42.264 135.575 43.576 133.399 44.504L141.799 59H135.607ZM126.631 41.384C129.767 41.384 131.911 40.712 133.063 39.368C134.247 37.992 134.839 36.36 134.839 34.472C134.839 30.28 132.039 28.184 126.439 28.184H123.223V41.384H126.631ZM161.4 23.672L178.392 59H172.2L169.176 52.088H153L149.976 59H143.976L160.872 23.672H161.4ZM159 38.696L155.16 47.24H167.064L163.272 38.744L161.208 33.896H161.112L159 38.696ZM187.884 42.536L175.644 23.72H182.076L190.572 37.64L199.069 23.72H205.452L193.26 42.632V59H187.884V42.536ZM209.622 23.72H218.118C225.222 23.72 230.182 25.4 232.998 28.76C235.846 32.12 237.27 36.12 237.27 40.76C237.27 43.992 236.662 46.984 235.446 49.736C234.23 52.456 232.214 54.68 229.398 56.408C226.614 58.136 222.95 59 218.406 59H209.622V23.72ZM218.982 54.248C223.398 54.248 226.598 53 228.582 50.504C230.598 47.976 231.606 44.808 231.606 41C231.606 37.288 230.598 34.264 228.582 31.928C226.566 29.592 223.366 28.424 218.982 28.424H214.998V54.248H218.982ZM243.821 23.72H259.277V28.424H249.149V38.168H257.309V42.968H249.149V54.248H260.861V59H243.821V23.72ZM272.707 36.152L272.851 39.992V59H267.475V23.672H268.147L288.883 46.808L288.691 42.776V23.72H294.067V59H293.347L272.707 36.152ZM315.719 23.72H324.695C329.751 23.72 333.111 24.568 334.775 26.264C336.439 27.96 337.271 30.008 337.271 32.408C337.271 34.008 336.919 35.528 336.215 36.968C335.511 38.376 334.391 39.432 332.855 40.136C335.127 40.712 336.791 41.72 337.847 43.16C338.935 44.6 339.479 46.296 339.479 48.248C339.479 50.296 339.159 52.088 338.519 53.624C337.879 55.16 336.551 56.44 334.535 57.464C332.519 58.488 329.607 59 325.799 59H315.719V23.72ZM325.559 38.696C327.831 38.696 329.447 38.152 330.407 37.064C331.367 35.944 331.847 34.536 331.847 32.84C331.847 29.8 329.671 28.28 325.319 28.28H320.999V38.696H325.559ZM326.519 54.488C329.431 54.488 331.383 53.912 332.375 52.76C333.399 51.576 333.911 50.088 333.911 48.296C333.911 46.6 333.335 45.288 332.183 44.36C331.031 43.432 329.287 42.968 326.951 42.968H320.999V54.488H326.519ZM358.94 23.672L375.932 59H369.74L366.716 52.088H350.54L347.516 59H341.516L358.412 23.672H358.94ZM356.54 38.696L352.7 47.24H364.604L360.812 38.744L358.748 33.896H358.652L356.54 38.696ZM380.088 23.72H389.064C394.12 23.72 397.48 24.568 399.144 26.264C400.808 27.96 401.64 30.008 401.64 32.408C401.64 34.008 401.288 35.528 400.584 36.968C399.88 38.376 398.76 39.432 397.224 40.136C399.496 40.712 401.16 41.72 402.216 43.16C403.304 44.6 403.848 46.296 403.848 48.248C403.848 50.296 403.528 52.088 402.888 53.624C402.248 55.16 400.92 56.44 398.904 57.464C396.888 58.488 393.976 59 390.168 59H380.088V23.72ZM389.928 38.696C392.2 38.696 393.816 38.152 394.776 37.064C395.736 35.944 396.216 34.536 396.216 32.84C396.216 29.8 394.04 28.28 389.688 28.28H385.368V38.696H389.928ZM390.888 54.488C393.8 54.488 395.752 53.912 396.744 52.76C397.768 51.576 398.28 50.088 398.28 48.296C398.28 46.6 397.704 45.288 396.552 44.36C395.4 43.432 393.656 42.968 391.32 42.968H385.368V54.488H390.888ZM411.335 23.72H420.311C425.367 23.72 428.727 24.568 430.391 26.264C432.055 27.96 432.887 30.008 432.887 32.408C432.887 34.008 432.535 35.528 431.831 36.968C431.127 38.376 430.007 39.432 428.471 40.136C430.743 40.712 432.407 41.72 433.463 43.16C434.551 44.6 435.095 46.296 435.095 48.248C435.095 50.296 434.775 52.088 434.135 53.624C433.495 55.16 432.167 56.44 430.151 57.464C428.135 58.488 425.223 59 421.415 59H411.335V23.72ZM421.175 38.696C423.447 38.696 425.063 38.152 426.023 37.064C426.983 35.944 427.463 34.536 427.463 32.84C427.463 29.8 425.287 28.28 420.935 28.28H416.615V38.696H421.175ZM422.135 54.488C425.047 54.488 426.999 53.912 427.991 52.76C429.015 51.576 429.527 50.088 429.527 48.296C429.527 46.6 428.951 45.288 427.799 44.36C426.647 43.432 424.903 42.968 422.567 42.968H416.615V54.488H422.135ZM443.205 23.72H448.581V59H443.205V23.72ZM464.611 28.424H455.587V23.72H479.059V28.424H469.939V59H464.611V28.424ZM492.155 28.424H483.131V23.72H506.603V28.424H497.483V59H492.155V28.424Z" fill="white"/>
</svg>
